<svg xmlns="http://www.w3.org/2000/svg" enable-background="new 0 0 64 64" viewBox="0 0 64 64" id="global-forum">
  <path fill="#4dbbee" d="M37,11h13c1.657,0,3,1.343,3,3v10c0,1.657-1.343,3-3,3H36l-8,5l2-5c-1.657,0-3-1.343-3-3v-6"></path>
  <path fill="#a9dbf7" d="M49,20v-9H37l-10,7v6h18C47.209,24,49,22.209,49,20z"></path>
  <path fill="#c1c2c4" d="M34,2H14c-1.657,0-3,1.343-3,3v10c0,1.657,1.343,3,3,3h14l8,5l-2-5c1.657,0,3-1.343,3-3V5
		C37,3.343,35.657,2,34,2z"></path>
  <circle cx="40" cy="21" r="2" fill="#fff"></circle>
  <circle cx="46" cy="21" r="2" fill="#fff"></circle>
  <path fill="#dbdcde" d="M34,2H14.207v9.207C14.207,13.302,15.905,15,18,15h19V5C37,3.343,35.657,2,34,2z"></path>
  <path fill="#3080c1" d="M58,36H6c0,14.359,11.641,26,26,26S58,50.359,58,36z"></path>
  <path fill="#3e9fe1" d="M37,58c4.985,0,9.641-1.405,13.597-3.838C55.175,49.475,58,43.069,58,36H11.307
		C13.231,48.46,24.001,58,37,58z"></path>
  <path fill="#1c526c" d="M58,35H6c-0.553,0-1,0.448-1,1c0,14.888,12.112,27,27,27s27-12.112,27-27C59,35.448,58.553,35,58,35
		z M31,51v9.099l-2.073-1.426C25.913,56.602,23.4,53.979,21.461,51H31z M20.269,49c-1.96-3.655-3.085-7.751-3.24-12H31v12H20.269z
		 M33,60.098V51h9.537c-1.938,2.979-4.452,5.602-7.465,7.674L33,60.098z M33,49V37h13.968c-0.154,4.249-1.28,8.345-3.239,12H33z
		 M15.03,37c0.143,4.222,1.185,8.302,3,12h-7.369c-2.155-3.524-3.468-7.617-3.641-12H15.03z M12.02,51h7.083
		c2.155,3.65,5.094,6.849,8.691,9.322l0.606,0.417C21.726,59.772,15.902,56.157,12.02,51z M35.599,60.739l0.606-0.417
		c3.596-2.473,6.536-5.672,8.69-9.322h7.084C48.098,56.158,42.273,59.773,35.599,60.739z M53.339,49h-7.371
		c1.815-3.698,2.857-7.778,3-12h8.012C56.807,41.383,55.494,45.476,53.339,49z"></path>
  <circle cx="24" cy="12" r="2" fill="#fff"></circle>
  <circle cx="18" cy="12" r="2" fill="#fff"></circle>
  <circle cx="30" cy="12" r="2" fill="#fff"></circle>
  <path d="M5 36c0 14.888 12.112 27 27 27s27-12.112 27-27c0-.552-.447-1-1-1H6C5.447 35 5 35.448 5 36zM12.02 51h7.083c2.155 3.65 5.094 6.849 8.691 9.322l.606.417C21.726 59.772 15.902 56.157 12.02 51zM33 60.098V51h9.537c-1.938 2.979-4.452 5.602-7.465 7.674L33 60.098zM33 49V37h13.968c-.154 4.249-1.28 8.345-3.239 12H33zM31 49H20.269c-1.96-3.655-3.085-7.751-3.24-12H31V49zM31 51v9.099l-2.073-1.426C25.913 56.602 23.4 53.979 21.461 51H31zM35.599 60.739l.606-.417c3.596-2.473 6.536-5.672 8.69-9.322h7.084C48.098 56.158 42.273 59.773 35.599 60.739zM53.339 49h-7.371c1.815-3.698 2.857-7.778 3-12h8.012C56.807 41.383 55.494 45.476 53.339 49zM15.03 37c.143 4.222 1.185 8.302 3 12h-7.369c-2.155-3.524-3.468-7.617-3.641-12H15.03zM34 1H14c-2.206 0-4 1.794-4 4v10c0 2.206 1.794 4 4 4h12v5c0 1.721 1.093 3.192 2.621 3.755l-1.55 3.874c-.16.402-.045.861.287 1.139C27.543 32.921 27.771 33 28 33c.184 0 .367-.05.53-.152L36.287 28H50c2.206 0 4-1.794 4-4V14c0-2.206-1.794-4-4-4H38V5C38 2.794 36.206 1 34 1zM12 15V5c0-1.103.897-2 2-2h20c1.103 0 2 .897 2 2v10c0 1.103-.897 2-2 2-.332 0-.642.165-.828.439-.186.275-.224.624-.101.932l.863 2.159-5.404-3.378C28.371 17.053 28.187 17 28 17H14C12.897 17 12 16.103 12 15zM50 12c1.103 0 2 .897 2 2v10c0 1.103-.897 2-2 2H36c-.188 0-.371.053-.53.152l-5.404 3.378.863-2.159c.123-.308.085-.657-.101-.932C30.642 26.165 30.332 26 30 26c-1.103 0-2-.897-2-2v-4.821l7.47 4.669C35.633 23.95 35.816 24 36 24c.229 0 .457-.079.642-.233.332-.277.447-.737.287-1.139l-1.55-3.874C36.907 18.192 38 16.721 38 15v-3H50z"></path>
  <circle cx="24" cy="12" r="2"></circle>
  <circle cx="18" cy="12" r="2"></circle>
  <circle cx="30" cy="12" r="2"></circle>
  <circle cx="40" cy="21" r="2"></circle>
  <circle cx="46" cy="21" r="2"></circle>
</svg>
