<svg xmlns="http://www.w3.org/2000/svg" width="1024" height="1024" fill="#fff"><path d="M611.186 119.101a39.59 39.59 0 0 1 5.358.016c5.153.402 10.907 3.34 13.652 7.412 20.996 31.15 30.708 114.813 27.296 149.196 4.02 6.927 8.164 13.565 11.694 20.773 26.768 54.656 27.05 110.405-2.525 163.668 2.534 2.701 8.387 6.904 11.494 9.306 5.22 3.987 10.303 8.152 15.238 12.487a341.03 341.03 0 0 1 60.756 68.536c36.775 55.478 58.434 122.699 60.33 189.265.894 31.358-11.152 129.119-38.729 146.525-2.422 1.513-5.1 2.572-7.902 3.124-13.222 2.534-80.636 5.595-90.958 2.963-2.767-.706-5.859-2.044-7.274-4.697-4.856-9.11 6.627-17.993 8.841-25.131.538-1.737.759-3.697-.362-5.273-.918-1.292-2.617-2.22-4.182-2.386-2.728-.291-5.323 1.482-7.279 3.182-10.528 9.153-12.943 20.706-13.786 33.912-4.109.055-8.525.047-12.041-2.28-12.53-8.29-9.031-25.546-2.665-36.061 10.268-16.961 25.752-23.914 45.125-21.752 5.733.64 13.232 1.199 18.911-.07 2.084-.541 3.113-1.034 4.195-2.931.752-9.095-14.335-11.492-20.839-12.22-23.868-2.671-43.064 7.998-60.936 22.619 6.242-14.446 15.98-24.815 25.003-37.658 22.996-32.768 36.601-71.004 41.062-110.688 2.422-21.539-10.443-35.005-16.442-7.602-1.814 8.287-1.625 18.063-3.349 26.639-6.977 34.7-22.904 66.731-43.851 95.076-28.511 38.58-66.313 79.173-115.818 88.035-16.856 3.018-38.797-.531-24.885-22.675 2.022-3.219 5.401-7.874 4.622-11.968-5.328-11.994-17.717 1.832-21.188 8.206-5.317 9.93-3.873 15.372-1.353 24.433-5.836 2.65-12.929 3.436-18.965 1.011-3.675-1.47-6.602-4.359-8.12-8.014-5.969-14.053 4.743-23.967 9.164-35.022-1.311-2.629-2.517-5.806-5.977-5.467-4.006.392-7.898 2.594-10.47 5.638-8.567 10.139-9.72 23.323-9.01 36.052-7.916.007-15.185-1.648-18.095-9.978-6.99-20.152 11.843-39.585 26.281-50.819 15.467-12.034 35.634-11.471 53.458-17.85 11.544-4.131 15.431-10.488 23.157-19.307 10.834-12.365 20.758-25.052 28.907-39.365 10.054-17.675 17.567-35.872 25.201-54.754 2.078-5.14 12.168-26.755-3.497-22.427-6.405 1.769-10.916 13.044-13.19 19.132-10.242 27.409-23.509 54.905-42.361 77.504-7.574 9.053-16.332 19.486-27.363 24.19-5.75-2.744-13.467-10.023-18.211-14.673-28.923-28.357-42.779-56.67-57.514-93.383-1.892-4.424-9.152-21.149-15.357-7.482-2.276 5.012 1.885 17.01 3.653 22.179 2.578 7.536 7.531 15.868 11.668 23.075-24.983 31.495-64.425 57.305-104.995 42.654-32.876-11.872-78.972-53.075-93.983-84.333 5.49-11.652 12.582-23.048 20.068-33.528 4.917-7.533 11.087-6.206 19.179-4.931 18.036 2.844 23.938-2.869 38.123-12.037 16.555 10.137 30.937 26.974 46.35 38.559 2.643 1.987 7.346-2.554 7.318-4.777-.113-9.212-11.568-26.902-15.85-34.035 23.307-26.931 30.564-40.001 47.741-70.77 14.441 8.139 30.952 15.72 47.308 20.192 78.599 21.49 173.071-.951 228.915-61.684 2.269-2.468 5.737-6.64 6.609-9.827-2.541-16.757-16.983 2.319-22.264 6.774-6.986 5.819-14.222 11.33-21.687 16.519a237.39 237.39 0 0 1-117.086 40.07c-51.77 3.344-101.927-12.219-141.036-46.629 23.854-7.404 44.355-17.988 62.381-35.718 5.081-4.998 9.996-11.218 15.042-16.581.674 5.089 1.231 10.193 1.672 15.308-2.552 4.581-15.111 17.787-10.207 22.311 7.57 6.982 15.265-2.911 20.436-7.821 6.65 3.896 25.004 18.988 33.626 14.025 12.326-7.097-10.801-15.338-15.198-17.883-2.914-1.65-5.505-3.814-7.647-6.387-21.592-26.419 42.976-60.755-1.689-60.845 2.546-6.049 4.418-14.909 5.664-21.52a141.64 141.64 0 0 0-22.445-106.945c-23.576-34.41-57.368-50.401-97.188-57.787 9.196-8.949 27.201-19.129 32.343-30.987-5.123-19.084-24.036-38.848-36.576-54.023-3.156-3.819-9.297-10.923-14.451-10.709-.868.386-1.315.646-1.886 1.441-5.961 8.303-3.022 79.694-.316 92.791-22.227 5.32-19.43-1.206-20.807-20.236-1.654-22.848-2.831-70.975 5.339-91.2 15.757-39.009 76.254 31.539 89.354 45.308 7.254 7.031 14.352 19.398 22.629 23.155 26.3-7.254 75.821-7.874 101.719-.038 4.994-3.523 14.369-13.476 19.264-18.126 20.615-19.581 41.592-41.699 66.348-55.967 5.425-3.126 11.309-4.841 17.311-6.004zm-22.925 123.323c5.209 3.582 25.79 19.39 29.896 20.373 6.613-2.019 6.85-15.044 7.085-20.88 1.08-26.89-.249-55.574-7.794-81.519-1.748-6.013-4.832-11.988-11.818-11.312-16.878 6.387-47.65 41.863-56.419 58.335-1.205 2.262-2.313 7.094-1.155 9.51 3.16 6.595 17.764 12.572 24.145 16.091 5.443 2.977 10.799 6.113 16.06 9.402zm-56.975 158.71c6.871-12.738 5.854-24.102.899-37.25 4.353.332 16.041 2.941 20.306 4.796 10.033 4.362 22.351-1.505 14.229-11.765-6.407-8.094-27.97-10.655-38.461-9.749-11.831 1.548-22.921 5.693-31.054 15.544-13.121 15.894-5.052 51.843 19.684 48.953 5.567-.651 11.266-5.758 14.397-10.529zm28.589 50.309c13.996-.103 34.916-1.491 48.216 1.878 13.862 3.51 21.501-5.781 14.449-10.725-5.119-3.588-37.427-3.644-46.27-3.366l-41.404.891c-6.813.194-14.15-.158-20.863 1.007-1.452.252-2.753.638-3.819 1.712-1.148 1.158-1.863 2.924-1.591 4.567.247 1.485 1.344 2.735 2.645 3.418 5.363 2.813 40.429.624 48.637.618zm41.139 48.487c12.122-9.556-4.171-14.161-11.536-16.167-22.671-6.173-51.049-13.877-74.717-13.441-1.266.028-2.53.12-3.787.274-1.666 1.068-3.664 2.521-4.056 4.567-1.725 9.003 22.953 8.802 29.726 9.857a305.49 305.49 0 0 1 36.103 8.008c7.744 2.188 20.674 7.383 28.267 6.902zm-296.03-241.886c70.017-3.124 129.302 51.117 132.402 121.134s-51.159 129.286-121.178 132.363c-69.986 3.075-129.22-51.154-132.319-121.139S235 261.165 304.984 258.044zM318.225 485.6c55.918-4.23 97.776-53.059 93.411-108.967s-53.296-97.648-109.193-93.148c-55.707 4.486-97.274 53.212-92.923 108.93s52.977 97.401 108.705 93.185zm-13.652-186.436c26.389-2.463 49.667 6.473 68.085 25.455a85.18 85.18 0 0 1 24.376 62.184c-.791 36.433-26.261 76.208-65.097 80.066-3.116.31-7.088.078-10.277-.007 4.279-2.775 8.727-4.586 13.466-7.774 1.561-1.384 3.115-3.064 4.577-4.573-25.212-11.481-40.329-31.095-45.416-58.463-3.707-21.053-.295-42.741 9.697-61.639 2.364-4.404 5.977-9.498 8.841-13.704-12.213-7.403-39.021 2.582-50.8 8.355-1.225.6-1.084.896-2.702 1.229-1.478-3.555.176-8.594 2.588-11.365 10.672-12.26 27.108-17.545 42.662-19.764zm39.432 116.114c29.302-9.896 28.595-52.973 3.78-67.396-3.712-2.158-8.431-2.054-12.585-1.755-34.953 12.25-26.952 74.569 8.805 69.151zm-109.999-66.889c1.945.037 2.931.079 4.672.777 1.02.41 2.509 2.346 2.369 2.784-2.235 6.962-5.357 15.395-6.894 22.294-3.329 14.944.588 38.655 6.209 52.769l.332.82-.393.719c-13.262-13.507-17.419-41.207-15.06-59.257.988-7.558 2.447-15.944 8.765-20.906zm616.448-24.242c18.524-1.752 34.656 3.595 36.998 24.602 2.702 24.232-21.571 37.201-31.859 56.11-23.266 42.763.17 91.317 18.804 130.986 23.711 50.35 38.709 100.922 33.744 157.121-5.294 59.938-29.299 106.597-75.41 145.135-6.11 5.193-14.294 11.257-21.237 14.994 12.746-36.764 18.492-72.291 18.88-110.699.021-2.088 3.926-11.922 4.719-14.833 15.008-55.485-.829-121.205-25.93-172.166-29.993-60.895-54.364-129.989-13.01-193.295 12.572-19.245 31.028-33.546 54.301-37.955zM194.123 539.664c2.432-.32 6.33-.222 8.659.261a27.5 27.5 0 0 1 8.948 3.624c5.246 3.24 22.123 17.883 25.263 22.968a21.16 21.16 0 0 1 2.413 16.735c-5.367 19.782-21.281 6.048-33.188.395-19.573-9.293-29.836 2.623-8.253 12.839 12.558 5.944 25.345 14.05 20.962 29.895a17.63 17.63 0 0 1-8.89 10.882c-10.344 5.458-24.673-4.988-36.218-8.71l-.807-.255a18.27 18.27 0 0 0-2.334-.234c-2.542-.073-6.623 2.819-5.826 5.746 1.225 4.291 6.679 7.488 10.497 9.531 6.54 3.501 16.538 10.865 10.007 19.203-10.705 13.238-28.316 3.792-38.939-3.778-28.383-20.224-13.207-65.871 4.645-87.979 9.706-12.02 26.56-29.01 43.061-31.123zm-48.804 136.352c10.763 5.414 26.094 12.529 38.303 10.383-7.638 9.841-12.644 25.722-20.885 34.672-4.182 3.575-9.026 5.657-14.464 5.53-11.492-.27-19.08-7.248-18.586-18.917.416-9.816 4.411-15.263 9.501-23.228 1.911-2.991 3.589-6.031 6.131-8.44zm113.558-110.382c18.4 8.545 22.686 59.006-9.871 59.991-.878-.083-1.752-.204-2.62-.364-4.547-.884-13.661-4.507-10.349-10.797 1.901-3.928 5.847-7.499 7.87-11.222 6.38-11.744 12.547-24.477 14.97-37.608zm-18.117-59.493c2.699 1.119 9.051 5.211 12.023 6.76 6.106 3.18 11.981 6.008 18.341 8.687-2.952 7-12.979 22.645-17.166 30.555l-1.072 1.536c-2.492-.259-24.031-16.697-27.931-19.412 4.846-9.41 10.53-18.894 15.805-28.126z"/></svg>